<svg width="165" height="40" viewBox="0 0 165 40" fill="none" xmlns="http://www.w3.org/2000/svg">
<path d="M52.8659 5.56375H42.1169C39.5581 5.56375 37.3384 7.33896 36.7609 9.84807L35.6714 14.5855H54.8366C56.1434 14.5855 56.961 15.6517 56.6555 16.9702C56.5036 17.6295 56.101 18.2248 55.5747 18.6548C55.0467 19.0866 54.3934 19.355 53.7382 19.355H39.6376C36.6744 19.355 34.1015 21.4127 33.434 24.3181L32.076 30.2248C32.5033 30.1626 32.9413 30.1324 33.3916 30.1324C36.8245 30.1324 39.6358 31.9289 40.4552 34.4362H51.2042C53.7629 34.4362 55.9827 32.661 56.5601 30.1519L57.6497 25.4145H38.4844C37.1777 25.4145 36.3601 24.3483 36.6656 23.0298C36.8174 22.3705 37.2201 21.7752 37.7463 21.3452C38.2743 20.9134 38.9277 20.645 39.5828 20.645H53.6835C56.6466 20.645 59.2195 18.5873 59.8871 15.6819L61.245 9.77521C60.8177 9.8374 60.3797 9.86761 59.9294 9.86761C56.4965 9.86761 53.6852 8.07108 52.8659 5.56375Z" fill="#FF6700"/>
<path d="M59.9294 8.08174C62.983 8.08174 65.4584 6.27258 65.4584 4.04087C65.4584 1.80916 62.983 0 59.9294 0C56.8758 0 54.4004 1.80916 54.4004 4.04087C54.4004 6.27258 56.8758 8.08174 59.9294 8.08174Z" fill="#FF6700"/>
<path d="M33.3881 40C36.4417 40 38.9171 38.1908 38.9171 35.9591C38.9171 33.7274 36.4417 31.9183 33.3881 31.9183C30.3345 31.9183 27.8591 33.7274 27.8591 35.9591C27.8591 38.1908 30.3345 40 33.3881 40Z" fill="#FF6700"/>
<path d="M5.34721 29.9271C5.3066 30.1013 5.08763 30.2737 4.91104 30.2737H0.282634C0.104279 30.2737 -0.0334607 30.1013 0.00715486 29.9271L3.89035 13.3088C3.93097 13.1364 4.14994 12.9622 4.32829 12.9622H8.9567C9.13505 12.9622 9.27279 13.1364 9.23218 13.3088L5.34898 29.9271H5.34721Z" fill="white"/>
<path d="M17.606 22.9152C16.9633 22.1066 16.2834 20.9534 16.2834 20.9534H16.1651L14.069 29.9271C14.0283 30.1013 13.8094 30.2737 13.6328 30.2737H9.00438C8.82603 30.2737 8.68828 30.1013 8.7289 29.9271L12.6121 13.3088C12.6527 13.1364 12.8717 12.9622 13.05 12.9622H17.0551L22.9267 20.4647C23.5907 21.3016 24.1398 22.2541 24.1398 22.2541H24.2281L26.319 13.3105C26.3596 13.1382 26.5785 12.964 26.7569 12.964H31.3853C31.5637 12.964 31.7014 13.1382 31.6608 13.3105L27.7776 29.9289C27.737 30.1031 27.518 30.2754 27.3414 30.2754H23.3364L17.6096 22.9169L17.606 22.9152Z" fill="white"/>
<path d="M61.3261 30.2754C61.1478 30.2754 61.01 30.103 61.0507 29.9289L64.9339 13.3105C64.9745 13.1381 65.1934 12.964 65.3718 12.964H73.0852C78.9303 12.964 82.2943 16.3402 81.06 21.6197C79.8468 26.8138 75.5363 30.2754 69.0996 30.2754H61.3261ZM69.3292 17.3478L67.3337 25.888H70.092C73.2071 25.888 75.1036 24.2425 75.7182 21.6179C76.3521 18.9062 74.8176 17.3478 72.0592 17.3478H69.3292Z" fill="white"/>
<path d="M98.8408 13.3087C98.8814 13.1363 99.1003 12.9622 99.2787 12.9622H103.907C104.085 12.9622 104.223 13.1363 104.183 13.3087L102.194 21.8205C100.886 27.418 96.621 30.5632 90.7759 30.5632C84.9308 30.5632 82.1354 27.418 83.4439 21.8205L85.4323 13.3087C85.473 13.1363 85.6919 12.9622 85.8703 12.9622H90.4987C90.677 12.9622 90.8148 13.1363 90.7742 13.3087L88.8052 21.7334C88.1112 24.7045 89.3032 26.2061 91.7949 26.2061C94.2865 26.2061 96.1796 24.7063 96.8753 21.7334L98.8443 13.3087H98.8408Z" fill="white"/>
<path d="M105.578 17.3478C105.399 17.3478 105.216 17.1168 105.256 16.9444L106.092 13.3673C106.132 13.195 106.423 12.964 106.602 12.964H123.69C123.869 12.964 124.052 13.195 124.012 13.3673L123.177 16.9444C123.136 17.1185 122.845 17.3478 122.666 17.3478H116.793L113.853 29.9271C113.812 30.1012 113.593 30.2736 113.416 30.2736H108.788C108.61 30.2736 108.472 30.1012 108.513 29.9271L111.453 17.3478H105.578Z" fill="white"/>
<path d="M136.875 20.262C136.608 20.262 136.493 20.1181 136.477 19.8C136.453 18.1261 135.368 17.0581 133.262 17.0581C130.918 17.0581 128.479 18.7321 127.805 21.6161C127.144 24.4433 128.727 26.1759 131.13 26.1759C133.177 26.1759 134.734 25.2234 135.58 23.6365C135.75 23.29 135.955 23.1745 136.281 23.1745H140.523C140.76 23.1745 141.03 23.29 140.963 23.5797C140.147 27.0715 136.038 30.5615 130.104 30.5615C124.646 30.5615 121.243 26.8405 122.463 21.6161C123.662 16.4806 128.826 12.6725 134.284 12.6725C139.742 12.6725 142.721 16.0488 141.846 19.8C141.793 20.031 141.559 20.262 141.233 20.262H136.871H136.875Z" fill="white"/>
<path d="M161.106 29.9289C161.066 30.103 160.847 30.2754 160.67 30.2754H156.042C155.863 30.2754 155.725 30.103 155.766 29.9289L157.075 24.3313H148.708L147.399 29.9289C147.359 30.103 147.14 30.2754 146.963 30.2754H142.335C142.156 30.2754 142.019 30.103 142.059 29.9289L145.942 13.3105C145.983 13.1381 146.202 12.964 146.38 12.964H151.009C151.187 12.964 151.325 13.1381 151.284 13.3105L149.734 19.9475H158.101L159.651 13.3105C159.692 13.1381 159.911 12.964 160.089 12.964H164.717C164.896 12.964 165.033 13.1381 164.993 13.3105L161.11 29.9289H161.106Z" fill="white"/>
</svg>
